<mxfile host="app.diagrams.net" agent="Mozilla/5.0 (Windows NT 10.0; Win64; x64) AppleWebKit/537.36 (KHTML, like Gecko) Chrome/126.0.0.0 Safari/537.36" version="24.7.17">
  <diagram name="Page-1" id="R3jAmFJRPxfh6mLEVMVj">
    <mxGraphModel dx="1112" dy="1229" grid="0" gridSize="10" guides="1" tooltips="1" connect="1" arrows="1" fold="1" page="0" pageScale="1" pageWidth="850" pageHeight="1100" math="0" shadow="0">
      <root>
        <mxCell id="0" />
        <mxCell id="1" parent="0" />
        <mxCell id="2MGdo9xGNc9oCUWjdXbG-4" style="edgeStyle=none;curved=1;rounded=0;orthogonalLoop=1;jettySize=auto;html=1;exitX=1;exitY=0.25;exitDx=0;exitDy=0;entryX=0;entryY=0.25;entryDx=0;entryDy=0;fontSize=12;startSize=8;endSize=8;" edge="1" parent="1" source="2MGdo9xGNc9oCUWjdXbG-1" target="2MGdo9xGNc9oCUWjdXbG-2">
          <mxGeometry relative="1" as="geometry">
            <Array as="points">
              <mxPoint x="128" y="155" />
            </Array>
          </mxGeometry>
        </mxCell>
        <mxCell id="2MGdo9xGNc9oCUWjdXbG-1" value="Load M" style="whiteSpace=wrap;html=1;aspect=fixed;" vertex="1" parent="1">
          <mxGeometry x="-18" y="161" width="80" height="80" as="geometry" />
        </mxCell>
        <mxCell id="2MGdo9xGNc9oCUWjdXbG-9" style="edgeStyle=none;curved=1;rounded=0;orthogonalLoop=1;jettySize=auto;html=1;exitX=0.5;exitY=0;exitDx=0;exitDy=0;entryX=1;entryY=0.5;entryDx=0;entryDy=0;fontSize=12;startSize=8;endSize=8;" edge="1" parent="1" source="2MGdo9xGNc9oCUWjdXbG-2" target="2MGdo9xGNc9oCUWjdXbG-7">
          <mxGeometry relative="1" as="geometry">
            <Array as="points">
              <mxPoint x="200" y="45" />
            </Array>
          </mxGeometry>
        </mxCell>
        <mxCell id="2MGdo9xGNc9oCUWjdXbG-21" style="edgeStyle=none;curved=1;rounded=0;orthogonalLoop=1;jettySize=auto;html=1;exitX=0;exitY=0.75;exitDx=0;exitDy=0;entryX=1;entryY=0.75;entryDx=0;entryDy=0;fontSize=12;startSize=8;endSize=8;" edge="1" parent="1" source="2MGdo9xGNc9oCUWjdXbG-2" target="2MGdo9xGNc9oCUWjdXbG-1">
          <mxGeometry relative="1" as="geometry">
            <Array as="points">
              <mxPoint x="125" y="248" />
            </Array>
          </mxGeometry>
        </mxCell>
        <mxCell id="2MGdo9xGNc9oCUWjdXbG-2" value="page table" style="whiteSpace=wrap;html=1;aspect=fixed;" vertex="1" parent="1">
          <mxGeometry x="189" y="161" width="80" height="80" as="geometry" />
        </mxCell>
        <mxCell id="2MGdo9xGNc9oCUWjdXbG-6" value="1. reference" style="text;html=1;align=center;verticalAlign=middle;whiteSpace=wrap;rounded=0;fontSize=16;" vertex="1" parent="1">
          <mxGeometry x="81" y="131" width="94" height="30" as="geometry" />
        </mxCell>
        <mxCell id="2MGdo9xGNc9oCUWjdXbG-7" value="operating system" style="whiteSpace=wrap;html=1;aspect=fixed;" vertex="1" parent="1">
          <mxGeometry x="-18" y="-46" width="80" height="80" as="geometry" />
        </mxCell>
        <mxCell id="2MGdo9xGNc9oCUWjdXbG-10" value="2. trap" style="text;html=1;align=center;verticalAlign=middle;whiteSpace=wrap;rounded=0;fontSize=16;" vertex="1" parent="1">
          <mxGeometry x="189" y="38" width="60" height="30" as="geometry" />
        </mxCell>
        <mxCell id="2MGdo9xGNc9oCUWjdXbG-15" style="edgeStyle=none;curved=1;rounded=0;orthogonalLoop=1;jettySize=auto;html=1;exitX=0.145;exitY=1;exitDx=0;exitDy=-4.35;exitPerimeter=0;entryX=1;entryY=0.25;entryDx=0;entryDy=0;fontSize=12;startSize=8;endSize=8;" edge="1" parent="1" source="2MGdo9xGNc9oCUWjdXbG-11" target="2MGdo9xGNc9oCUWjdXbG-14">
          <mxGeometry relative="1" as="geometry">
            <Array as="points">
              <mxPoint x="434" y="322" />
            </Array>
          </mxGeometry>
        </mxCell>
        <mxCell id="2MGdo9xGNc9oCUWjdXbG-11" value="disc" style="shape=cylinder3;whiteSpace=wrap;html=1;boundedLbl=1;backgroundOutline=1;size=15;" vertex="1" parent="1">
          <mxGeometry x="413" y="-41" width="83" height="282" as="geometry" />
        </mxCell>
        <mxCell id="2MGdo9xGNc9oCUWjdXbG-12" style="edgeStyle=none;curved=1;rounded=0;orthogonalLoop=1;jettySize=auto;html=1;exitX=1;exitY=0.25;exitDx=0;exitDy=0;entryX=0;entryY=0;entryDx=0;entryDy=78;entryPerimeter=0;fontSize=12;startSize=8;endSize=8;" edge="1" parent="1" source="2MGdo9xGNc9oCUWjdXbG-7" target="2MGdo9xGNc9oCUWjdXbG-11">
          <mxGeometry relative="1" as="geometry">
            <Array as="points">
              <mxPoint x="263" y="-42" />
            </Array>
          </mxGeometry>
        </mxCell>
        <mxCell id="2MGdo9xGNc9oCUWjdXbG-13" value="3. page is on backing store" style="text;html=1;align=center;verticalAlign=middle;whiteSpace=wrap;rounded=0;fontSize=16;" vertex="1" parent="1">
          <mxGeometry x="168" y="-62" width="160" height="30" as="geometry" />
        </mxCell>
        <mxCell id="2MGdo9xGNc9oCUWjdXbG-19" style="edgeStyle=none;curved=1;rounded=0;orthogonalLoop=1;jettySize=auto;html=1;exitX=0;exitY=0.25;exitDx=0;exitDy=0;entryX=0.5;entryY=1;entryDx=0;entryDy=0;fontSize=12;startSize=8;endSize=8;" edge="1" parent="1" source="2MGdo9xGNc9oCUWjdXbG-14" target="2MGdo9xGNc9oCUWjdXbG-2">
          <mxGeometry relative="1" as="geometry">
            <Array as="points">
              <mxPoint x="226" y="320" />
            </Array>
          </mxGeometry>
        </mxCell>
        <mxCell id="2MGdo9xGNc9oCUWjdXbG-14" value="" style="shape=internalStorage;whiteSpace=wrap;html=1;backgroundOutline=1;" vertex="1" parent="1">
          <mxGeometry x="294" y="298" width="80" height="222" as="geometry" />
        </mxCell>
        <mxCell id="2MGdo9xGNc9oCUWjdXbG-17" value="4. bring in missing page" style="text;html=1;align=center;verticalAlign=middle;whiteSpace=wrap;rounded=0;fontSize=16;" vertex="1" parent="1">
          <mxGeometry x="423" y="298" width="123" height="30" as="geometry" />
        </mxCell>
        <mxCell id="2MGdo9xGNc9oCUWjdXbG-18" value="Physical&lt;div&gt;Mem&lt;/div&gt;" style="text;html=1;align=center;verticalAlign=middle;whiteSpace=wrap;rounded=0;fontSize=16;rotation=35;" vertex="1" parent="1">
          <mxGeometry x="310" y="388" width="60" height="30" as="geometry" />
        </mxCell>
        <mxCell id="2MGdo9xGNc9oCUWjdXbG-20" value="5. reset page table" style="text;html=1;align=center;verticalAlign=middle;whiteSpace=wrap;rounded=0;fontSize=16;" vertex="1" parent="1">
          <mxGeometry x="234" y="254" width="116" height="30" as="geometry" />
        </mxCell>
        <mxCell id="2MGdo9xGNc9oCUWjdXbG-22" value="6. restart instruction/process" style="text;html=1;align=center;verticalAlign=middle;whiteSpace=wrap;rounded=0;fontSize=16;" vertex="1" parent="1">
          <mxGeometry x="73" y="250" width="99" height="30" as="geometry" />
        </mxCell>
      </root>
    </mxGraphModel>
  </diagram>
</mxfile>
